<svg xmlns="http://www.w3.org/2000/svg" viewBox="0 0 900 620" role="img">
  <defs>
    <filter id="glow" x="-50%" y="-50%" width="200%" height="200%">
      <feGaussianBlur stdDeviation="5" result="blur"/>
      <feMerge><feMergeNode in="blur"/><feMergeNode in="SourceGraphic"/></feMerge>
    </filter>
    <linearGradient id="shine" x1="0" x2="1">
      <stop offset="0" stop-color="#fff" stop-opacity=".9"/>
      <stop offset=".3" stop-color="currentColor" stop-opacity=".9"/>
      <stop offset=".7" stop-color="#7b672e" stop-opacity=".85"/>
      <stop offset="1" stop-color="#fff" stop-opacity=".92"/>
    </linearGradient>
    <radialGradient id="diamond" cx="50%" cy="40%" r="60%">
      <stop offset="0" stop-color="#fff"/>
      <stop offset=".55" stop-color="#eaf8ff"/>
      <stop offset="1" stop-color="#89a9bf"/>
    </radialGradient>
    
  </defs>
  <rect width="900" height="620" fill="none"/>
  <g transform="translate(330 424)"><circle r="5" fill="#fff7db"/><path d="M0 -18c10 8 10 28 0 36M-18 0c8 -10 28 -10 36 0" stroke="#fff7db" stroke-width="3" fill="none"/></g><g transform="translate(378 432.414709848079)"><circle r="5" fill="#fff7db"/><path d="M0 -18c10 8 10 28 0 36M-18 0c8 -10 28 -10 36 0" stroke="#fff7db" stroke-width="3" fill="none"/></g><g transform="translate(426 433.0929742682568)"><circle r="5" fill="#fff7db"/><path d="M0 -18c10 8 10 28 0 36M-18 0c8 -10 28 -10 36 0" stroke="#fff7db" stroke-width="3" fill="none"/></g><g transform="translate(474 425.4112000805987)"><circle r="5" fill="#fff7db"/><path d="M0 -18c10 8 10 28 0 36M-18 0c8 -10 28 -10 36 0" stroke="#fff7db" stroke-width="3" fill="none"/></g><g transform="translate(522 416.43197504692074)"><circle r="5" fill="#fff7db"/><path d="M0 -18c10 8 10 28 0 36M-18 0c8 -10 28 -10 36 0" stroke="#fff7db" stroke-width="3" fill="none"/></g><g transform="translate(570 414.4107572533686)"><circle r="5" fill="#fff7db"/><path d="M0 -18c10 8 10 28 0 36M-18 0c8 -10 28 -10 36 0" stroke="#fff7db" stroke-width="3" fill="none"/></g>
</svg>